<?xml version="1.0" standalone="yes"?>
<svg xmlns="http://www.w3.org/2000/svg" width="200" height="200">
<path style="fill:#ffffff; stroke:none;" d="M0 0L0 200L200 200L200 0L0 0z"/>
<path style="fill:#f6bcc6; stroke:none;" d="M89 9L89 10L97 10L89 9z"/>
<path style="fill:#f66f7f; stroke:none;" d="M97 9L97 10L101 10L97 9z"/>
<path style="fill:#ea9f84; stroke:none;" d="M101 9L102 10L101 9z"/>
<path style="fill:#f6bcc6; stroke:none;" d="M102 9L102 10L109 10L102 9M83.6667 10.3333L84.3333 10.6667L83.6667 10.3333z"/>
<path style="fill:#f66f7f; stroke:none;" d="M85.6667 10.3333L86.3333 10.6667L85.6667 10.3333z"/>
<path style="fill:#f64c5f; stroke:none;" d="M87 10.4282C73.2134 12.4033 59.7418 17.1498 48 24.6983C37.8129 31.2474 28.8998 40.0448 22.0255 50C-23.2314 115.54 32.2124 207.997 112 196.572C125.565 194.629 138.371 190.07 150 182.771C160.239 176.344 169.108 167.945 175.975 158C220.976 92.8302 167.68 -1.13005 87 10.4282z"/>
<path style="fill:#f66f7f; stroke:none;" d="M111.667 10.3333L112.333 10.6667L111.667 10.3333z"/>
<path style="fill:#ea9f84; stroke:none;" d="M113 10L114 11L113 10z"/>
<path style="fill:#f6bcc6; stroke:none;" d="M114.667 10.3333L115.333 10.6667L114.667 10.3333M78 11L79 12L78 11z"/>
<path style="fill:#ea9f84; stroke:none;" d="M79 11L80 12L79 11z"/>
<path style="fill:#f66f7f; stroke:none;" d="M80 11L81 12L80 11M117 11L118 12L117 11z"/>
<path style="fill:#ea9f84; stroke:none;" d="M118 11L119 12L118 11z"/>
<path style="fill:#f6bcc6; stroke:none;" d="M119.667 11.3333L120.333 11.6667L119.667 11.3333M74 12L75 13L74 12z"/>
<path style="fill:#ea9f84; stroke:none;" d="M75 12L76 13L75 12z"/>
<path style="fill:#f66f7f; stroke:none;" d="M76 12L77 13L76 12M122 12L123 13L122 12z"/>
<path style="fill:#f6bcc6; stroke:none;" d="M123.667 12.3333L124.333 12.6667L123.667 12.3333z"/>
<path style="fill:#ea9f84; stroke:none;" d="M71 13L72 14L71 13z"/>
<path style="fill:#f66f7f; stroke:none;" d="M72 13L73 14L72 13z"/>
<path style="fill:#ea9f84; stroke:none;" d="M126 13L127 14L126 13z"/>
<path style="fill:#f6bcc6; stroke:none;" d="M127 13L128 14L127 13z"/>
<path style="fill:#ea9f84; stroke:none;" d="M68 14L69 15L68 14z"/>
<path style="fill:#f66f7f; stroke:none;" d="M69 14L70 15L69 14z"/>
<path style="fill:#ea9f84; stroke:none;" d="M129 14L130 15L129 14z"/>
<path style="fill:#f6bcc6; stroke:none;" d="M130 14L131 15L130 14M65 15L66 16L65 15z"/>
<path style="fill:#f66f7f; stroke:none;" d="M66 15L67 16L66 15z"/>
<path style="fill:#ea9f84; stroke:none;" d="M132 15L133 16L132 15z"/>
<path style="fill:#f6bcc6; stroke:none;" d="M133 15L134 16L133 15M62 16L63 17L62 16z"/>
<path style="fill:#ea9f84; stroke:none;" d="M63 16L64 17L63 16z"/>
<path style="fill:#f66f7f; stroke:none;" d="M134 16L135 17L134 16z"/>
<path style="fill:#f6bcc6; stroke:none;" d="M135 16L136 17L135 16M60 17L61 18L60 17z"/>
<path style="fill:#f66f7f; stroke:none;" d="M61 17L62 18L61 17z"/>
<path style="fill:#ea9f84; stroke:none;" d="M137 17L138 18L137 17z"/>
<path style="fill:#f6bcc6; stroke:none;" d="M58 18L59 19L58 18z"/>
<path style="fill:#f66f7f; stroke:none;" d="M59 18L60 19L59 18z"/>
<path style="fill:#ea9f84; stroke:none;" d="M139 18L140 19L139 18z"/>
<path style="fill:#f6bcc6; stroke:none;" d="M56 19L57 20L56 19z"/>
<path style="fill:#f66f7f; stroke:none;" d="M57 19L58 20L57 19z"/>
<path style="fill:#ea9f84; stroke:none;" d="M141 19L142 20L141 19z"/>
<path style="fill:#f6bcc6; stroke:none;" d="M54 20L55 21L54 20z"/>
<path style="fill:#f66f7f; stroke:none;" d="M55 20L56 21L55 20z"/>
<path style="fill:#ea9f84; stroke:none;" d="M143 20L144 21L143 20z"/>
<path style="fill:#f6bcc6; stroke:none;" d="M52 21L53 22L52 21z"/>
<path style="fill:#f66f7f; stroke:none;" d="M53 21L54 22L53 21z"/>
<path style="fill:#f6bcc6; stroke:none;" d="M145 21L146 22L145 21z"/>
<path style="fill:#ea9f84; stroke:none;" d="M51 22L52 23L51 22z"/>
<path style="fill:#f6bcc6; stroke:none;" d="M147 22L148 23L147 22M49 23L50 24L49 23z"/>
<path style="fill:#f66f7f; stroke:none;" d="M91 23L91 24L95 24L91 23z"/>
<path style="fill:#f6bcc6; stroke:none;" d="M95 23L95 24L103 24L95 23z"/>
<path style="fill:#ea9f84; stroke:none;" d="M103 23L104 24L103 23z"/>
<path style="fill:#f66f7f; stroke:none;" d="M104 23L104 24L107 24L104 23M148 23L149 24L148 23M48 24L49 25L48 24M84.6667 24.3333L85.3333 24.6667L84.6667 24.3333z"/>
<path style="fill:#f6bcc6; stroke:none;" d="M86 24L86 25L89 25L86 24z"/>
<path style="fill:#ffffff; stroke:none;" d="M179 111C166.68 114.549 155.014 122.076 143 126.797C119.981 135.842 96.5153 142.317 72 145.576C53.5339 148.03 32.0024 143.97 32 122L33 122C34.5775 141.288 55.4029 139.16 70 137.13C107.191 131.96 142.343 117.566 179 110C179 80.4866 168.704 53.2818 143 36.544C95.4338 5.57031 27.7016 34.9615 20.2894 92C12.1833 154.377 77.6422 203.87 135 175.191C162.111 161.636 172.336 138.671 179 111z"/>
<path style="fill:#f6bcc6; stroke:none;" d="M109 24L109 25L112 25L109 24z"/>
<path style="fill:#ea9f84; stroke:none;" d="M112 24L113 25L112 24z"/>
<path style="fill:#f66f7f; stroke:none;" d="M113 24L114 25L113 24z"/>
<path style="fill:#f6bcc6; stroke:none;" d="M150 24L151 25L150 24z"/>
<path style="fill:#ea9f84; stroke:none;" d="M46 25L47 26L46 25z"/>
<path style="fill:#f66f7f; stroke:none;" d="M80 25L81 26L80 25z"/>
<path style="fill:#f6bcc6; stroke:none;" d="M81.6667 25.3333L82.3333 25.6667L81.6667 25.3333M116 25L117 26L116 25z"/>
<path style="fill:#ea9f84; stroke:none;" d="M117 25L118 26L117 25z"/>
<path style="fill:#f66f7f; stroke:none;" d="M118 25L119 26L118 25M151 25L152 26L151 25M45 26L46 27L45 26M76 26L77 27L76 26z"/>
<path style="fill:#f6bcc6; stroke:none;" d="M77 26L78 27L77 26M120 26L121 27L120 26z"/>
<path style="fill:#ea9f84; stroke:none;" d="M121 26L122 27L121 26z"/>
<path style="fill:#f6bcc6; stroke:none;" d="M153 26L154 27L153 26M43 27L44 28L43 27z"/>
<path style="fill:#f66f7f; stroke:none;" d="M73 27L74 28L73 27z"/>
<path style="fill:#f6bcc6; stroke:none;" d="M74 27L75 28L74 27M123 27L124 28L123 27z"/>
<path style="fill:#ea9f84; stroke:none;" d="M124 27L125 28L124 27z"/>
<path style="fill:#f66f7f; stroke:none;" d="M154 27L155 28L154 27z"/>
<path style="fill:#ea9f84; stroke:none;" d="M42 28L43 29L42 28z"/>
<path style="fill:#f66f7f; stroke:none;" d="M70 28L71 29L70 28z"/>
<path style="fill:#f6bcc6; stroke:none;" d="M71 28L72 29L71 28M126 28L127 29L126 28z"/>
<path style="fill:#ea9f84; stroke:none;" d="M127 28L128 29L127 28z"/>
<path style="fill:#f6bcc6; stroke:none;" d="M156 28L157 29L156 28z"/>
<path style="fill:#f66f7f; stroke:none;" d="M41 29L42 30L41 29z"/>
<path style="fill:#ea9f84; stroke:none;" d="M68 29L69 30L68 29z"/>
<path style="fill:#f6bcc6; stroke:none;" d="M69 29L70 30L69 29M129 29L130 30L129 29z"/>
<path style="fill:#f66f7f; stroke:none;" d="M130 29L131 30L130 29z"/>
<path style="fill:#f6bcc6; stroke:none;" d="M157 29L158 30L157 29M39 30L40 31L39 30M66 30L67 31L66 30M131 30L132 31L131 30z"/>
<path style="fill:#f66f7f; stroke:none;" d="M132 30L133 31L132 30z"/>
<path style="fill:#ea9f84; stroke:none;" d="M158 30L159 31L158 30z"/>
<path style="fill:#f6bcc6; stroke:none;" d="M38 31L39 32L38 31z"/>
<path style="fill:#f66f7f; stroke:none;" d="M63 31L64 32L63 31z"/>
<path style="fill:#f6bcc6; stroke:none;" d="M64 31L65 32L64 31z"/>
<path style="fill:#ea9f84; stroke:none;" d="M134 31L135 32L134 31z"/>
<path style="fill:#f66f7f; stroke:none;" d="M159 31L160 32L159 31z"/>
<path style="fill:#ea9f84; stroke:none;" d="M37 32L38 33L37 32z"/>
<path style="fill:#f6bcc6; stroke:none;" d="M62 32L63 33L62 32z"/>
<path style="fill:#f66f7f; stroke:none;" d="M136 32L137 33L136 32M36 33L37 34L36 33z"/>
<path style="fill:#f6bcc6; stroke:none;" d="M60 33L61 34L60 33M137 33L138 34L137 33z"/>
<path style="fill:#f66f7f; stroke:none;" d="M138 33L139 34L138 33z"/>
<path style="fill:#f6bcc6; stroke:none;" d="M162 33L163 34L162 33z"/>
<path style="fill:#f66f7f; stroke:none;" d="M35 34L36 35L35 34z"/>
<path style="fill:#ea9f84; stroke:none;" d="M58 34L59 35L58 34z"/>
<path style="fill:#f6bcc6; stroke:none;" d="M139 34L140 35L139 34z"/>
<path style="fill:#f66f7f; stroke:none;" d="M140 34L141 35L140 34z"/>
<path style="fill:#f6bcc6; stroke:none;" d="M163 34L164 35L163 34z"/>
<path style="fill:#f66f7f; stroke:none;" d="M34 35L35 36L34 35M56 35L57 36L56 35z"/>
<path style="fill:#f6bcc6; stroke:none;" d="M57 35L58 36L57 35z"/>
<path style="fill:#ea9f84; stroke:none;" d="M141 35L142 36L141 35z"/>
<path style="fill:#f6bcc6; stroke:none;" d="M164 35L165 36L164 35z"/>
<path style="fill:#f66f7f; stroke:none;" d="M33 36L34 37L33 36z"/>
<path style="fill:#f6bcc6; stroke:none;" d="M55 36L56 37L55 36z"/>
<path style="fill:#f66f7f; stroke:none;" d="M143 36L144 37L143 36z"/>
<path style="fill:#f6bcc6; stroke:none;" d="M165 36L166 37L165 36z"/>
<path style="fill:#f66f7f; stroke:none;" d="M32 37L33 38L32 37M53 37L54 38L53 37z"/>
<path style="fill:#f6bcc6; stroke:none;" d="M144 37L145 38L144 37M166 37L167 38L166 37z"/>
<path style="fill:#f66f7f; stroke:none;" d="M31 38L32 39L31 38z"/>
<path style="fill:#ea9f84; stroke:none;" d="M52 38L53 39L52 38z"/>
<path style="fill:#f6bcc6; stroke:none;" d="M145 38L146 39L145 38z"/>
<path style="fill:#f66f7f; stroke:none;" d="M146 38L147 39L146 38z"/>
<path style="fill:#f6bcc6; stroke:none;" d="M167 38L168 39L167 38z"/>
<path style="fill:#f66f7f; stroke:none;" d="M30 39L31 40L30 39z"/>
<path style="fill:#f6bcc6; stroke:none;" d="M51 39L52 40L51 39z"/>
<path style="fill:#f66f7f; stroke:none;" d="M147 39L148 40L147 39z"/>
<path style="fill:#f6bcc6; stroke:none;" d="M168 39L169 40L168 39z"/>
<path style="fill:#f66f7f; stroke:none;" d="M29 40L30 41L29 40M49 40L50 41L49 40z"/>
<path style="fill:#f6bcc6; stroke:none;" d="M148 40L149 41L148 40M169 40L170 41L169 40z"/>
<path style="fill:#ea9f84; stroke:none;" d="M28 41L29 42L28 41M48 41L49 42L48 41z"/>
<path style="fill:#f6bcc6; stroke:none;" d="M149 41L150 42L149 41M27 42L28 43L27 42M47 42L48 43L47 42z"/>
<path style="fill:#f66f7f; stroke:none;" d="M151 42L152 43L151 42z"/>
<path style="fill:#f6bcc6; stroke:none;" d="M26 43L27 44L26 43M46 43L47 44L46 43z"/>
<path style="fill:#f66f7f; stroke:none;" d="M152 43L153 44L152 43M171 43L172 44L171 43z"/>
<path style="fill:#ea9f84; stroke:none;" d="M153 44L154 45L153 44M172 44L173 45L172 44z"/>
<path style="fill:#f66f7f; stroke:none;" d="M25 45L26 46L25 45z"/>
<path style="fill:#ea9f84; stroke:none;" d="M154 45L155 46L154 45z"/>
<path style="fill:#f6bcc6; stroke:none;" d="M173 45L174 46L173 45z"/>
<path style="fill:#f66f7f; stroke:none;" d="M24 46L25 47L24 46z"/>
<path style="fill:#ea9f84; stroke:none;" d="M155 46L156 47L155 46z"/>
<path style="fill:#f6bcc6; stroke:none;" d="M174 46L175 47L174 46M23 47L24 48L23 47z"/>
<path style="fill:#ea9f84; stroke:none;" d="M156 47L157 48L156 47z"/>
<path style="fill:#f6bcc6; stroke:none;" d="M22 48L23 49L22 48z"/>
<path style="fill:#ea9f84; stroke:none;" d="M157 48L158 49L157 48M175 48L176 49L175 48z"/>
<path style="fill:#f66f7f; stroke:none;" d="M22 49L23 50L22 49z"/>
<path style="fill:#ea9f84; stroke:none;" d="M158 49L159 50L158 49z"/>
<path style="fill:#f6bcc6; stroke:none;" d="M176 49L177 50L176 49z"/>
<path style="fill:#ea9f84; stroke:none;" d="M21 50L22 51L21 50z"/>
<path style="fill:#f6bcc6; stroke:none;" d="M39 50L40 51L39 50z"/>
<path style="fill:#f66f7f; stroke:none;" d="M159 50L160 51L159 50z"/>
<path style="fill:#f6bcc6; stroke:none;" d="M20 51L21 52L20 51M38 51L39 52L38 51z"/>
<path style="fill:#f66f7f; stroke:none;" d="M160 51L161 52L160 51M177 51L178 52L177 51M20 52L21 53L20 52z"/>
<path style="fill:#ea9f84; stroke:none;" d="M37 52L38 53L37 52z"/>
<path style="fill:#f6bcc6; stroke:none;" d="M178 52L179 53L178 52z"/>
<path style="fill:#ea9f84; stroke:none;" d="M19 53L20 54L19 53z"/>
<path style="fill:#f66f7f; stroke:none;" d="M36 53L37 54L36 53z"/>
<path style="fill:#f6bcc6; stroke:none;" d="M161 53L162 54L161 53M18 54L19 55L18 54M162 54L163 55L162 54z"/>
<path style="fill:#f66f7f; stroke:none;" d="M179 54L180 55L179 54M18 55L19 56L18 55M163 55L164 56L163 55z"/>
<path style="fill:#f6bcc6; stroke:none;" d="M180 55L181 56L180 55M17 56L18 57L17 56M34 56L35 57L34 56z"/>
<path style="fill:#f66f7f; stroke:none;" d="M180 56L181 57L180 56M33 57L34 58L33 57z"/>
<path style="fill:#f6bcc6; stroke:none;" d="M164 57L165 58L164 57M181 57L182 58L181 57M16 58L17 59L16 58z"/>
<path style="fill:#ea9f84; stroke:none;" d="M165 58L166 59L165 58z"/>
<path style="fill:#f6bcc6; stroke:none;" d="M32 59L33 60L32 59z"/>
<path style="fill:#f66f7f; stroke:none;" d="M166 59L167 60L166 59z"/>
<path style="fill:#f6bcc6; stroke:none;" d="M182 59L183 60L182 59z"/>
<path style="fill:#ea9f84; stroke:none;" d="M15 60L16 61L15 60z"/>
<path style="fill:#f66f7f; stroke:none;" d="M31 60L32 61L31 60z"/>
<path style="fill:#f6bcc6; stroke:none;" d="M166 60L167 61L166 60z"/>
<path style="fill:#ea9f84; stroke:none;" d="M167 61L168 62L167 61M183 61L184 62L183 61M14 62L15 63L14 62z"/>
<path style="fill:#f6bcc6; stroke:none;" d="M30 62L31 63L30 62z"/>
<path style="fill:#f66f7f; stroke:none;" d="M29 63L30 64L29 63z"/>
<path style="fill:#f6bcc6; stroke:none;" d="M168 63L169 64L168 63z"/>
<path style="fill:#ea9f84; stroke:none;" d="M184 63L185 64L184 63z"/>
<path style="fill:#f6bcc6; stroke:none;" d="M13 64L14 65L13 64M29 64L30 65L29 64z"/>
<path style="fill:#f66f7f; stroke:none;" d="M169 64L170 65L169 64M28 65L29 66L28 65z"/>
<path style="fill:#f6bcc6; stroke:none;" d="M169 65L170 66L169 65M185 65L186 66L185 65M12 66L13 67L12 66M28 66L29 67L28 66z"/>
<path style="fill:#f66f7f; stroke:none;" d="M170 66L171 67L170 66M185 66L186 67L185 66M12 67L13 68L12 67M27 67L28 68L27 67z"/>
<path style="fill:#f6bcc6; stroke:none;" d="M170 67L171 68L170 67M186 67L187 68L186 67M11 68L12 69L11 68M27 68L28 69L27 68z"/>
<path style="fill:#f66f7f; stroke:none;" d="M171 68L172 69L171 68M186 68L187 69L186 68z"/>
<path style="fill:#ea9f84; stroke:none;" d="M11 69L12 70L11 69z"/>
<path style="fill:#f66f7f; stroke:none;" d="M26 69L27 70L26 69z"/>
<path style="fill:#f6bcc6; stroke:none;" d="M171 69L172 70L171 69M26 70L27 71L26 70z"/>
<path style="fill:#f66f7f; stroke:none;" d="M172 70L173 71L172 70z"/>
<path style="fill:#f6bcc6; stroke:none;" d="M187 70L188 71L187 70M10 71L11 72L10 71z"/>
<path style="fill:#f66f7f; stroke:none;" d="M25 71L26 72L25 71z"/>
<path style="fill:#f6bcc6; stroke:none;" d="M172 71L173 72L172 71z"/>
<path style="fill:#f66f7f; stroke:none;" d="M187 71L188 72L187 71M10 72L11 73L10 72z"/>
<path style="fill:#f6bcc6; stroke:none;" d="M25 72L26 73L25 72z"/>
<path style="fill:#ea9f84; stroke:none;" d="M173 73L174 74L173 73M188 73L189 74L188 73z"/>
<path style="fill:#f6bcc6; stroke:none;" d="M9 74L10 75L9 74z"/>
<path style="fill:#ea9f84; stroke:none;" d="M24 74L25 75L24 74z"/>
<path style="fill:#f66f7f; stroke:none;" d="M188 74L189 75L188 74M9 75L10 76L9 75z"/>
<path style="fill:#f6bcc6; stroke:none;" d="M24 75L25 76L24 75z"/>
<path style="fill:#f66f7f; stroke:none;" d="M174 75L175 76L174 75M23 76L24 77L23 76z"/>
<path style="fill:#f6bcc6; stroke:none;" d="M174 76L175 77L174 76z"/>
<path style="fill:#ea9f84; stroke:none;" d="M189 76L190 77L189 76z"/>
<path style="fill:#f6bcc6; stroke:none;" d="M8 77L9 78L8 77z"/>
<path style="fill:#ea9f84; stroke:none;" d="M23 77L24 78L23 77z"/>
<path style="fill:#f66f7f; stroke:none;" d="M189 77L190 78L189 77z"/>
<path style="fill:#ea9f84; stroke:none;" d="M8 78L9 79L8 78z"/>
<path style="fill:#f66f7f; stroke:none;" d="M175 78L176 79L175 78M8 79L9 80L8 79M22 79L23 80L22 79z"/>
<path style="fill:#f6bcc6; stroke:none;" d="M175 79L176 80L175 79M190 79L191 80L190 79z"/>
<path style="fill:#ea9f84; stroke:none;" d="M22 80L23 81L22 80z"/>
<path style="fill:#f6bcc6; stroke:none;" d="M66 80L65 82L66 80z"/>
<path style="fill:#ea9f84; stroke:none;" d="M50 118L64 119L59 116C59.1242 113.159 59.1285 109.702 60.9383 107.318C66.8787 99.4934 78.4947 110.322 70 118L70 119C74.4542 119 82.2208 120.817 85 117C74.1581 111.789 72.9695 90.563 70 80C64.4453 81.6711 63.6785 86.9636 62 92C58.7133 101.862 58.1138 111.059 50 118z"/>
<path style="fill:#f6bcc6; stroke:none;" d="M70.3333 80.6667L70.6667 81.3333L70.3333 80.6667z"/>
<path style="fill:#ea9f84; stroke:none;" d="M190 80L191 81L190 80z"/>
<path style="fill:#f6bcc6; stroke:none;" d="M7 81L8 82L7 81M22 81L23 82L22 81M101 81L101 82L104 82L101 81z"/>
<path style="fill:#ea9f84; stroke:none;" d="M100 82L105 85L105 116L100 116L100 119L116 119L116 117L110 116L111 101C115.735 102.293 117.732 103.587 120 108L121 108L122 91L119 98L111 99C109.479 92.6092 110.163 81.0218 119.996 84.6042C123.492 85.8776 125.751 89.2684 129 91L129 82L100 82z"/>
<path style="fill:#f6bcc6; stroke:none;" d="M108 81L108 82L112 82L108 81M116.667 81.3333L117.333 81.6667L116.667 81.3333M124 81L125 82L124 81z"/>
<path style="fill:#f66f7f; stroke:none;" d="M176 81L177 82L176 81M190 81L191 82L190 81z"/>
<path style="fill:#ea9f84; stroke:none;" d="M7 82L8 83L7 82z"/>
<path style="fill:#f6bcc6; stroke:none;" d="M176.333 82.6667L176.667 83.3333L176.333 82.6667z"/>
<path style="fill:#f66f7f; stroke:none;" d="M7 83L8 84L7 83M21 83L22 84L21 83z"/>
<path style="fill:#f6bcc6; stroke:none;" d="M129 83L129 87L130 87L129 83M191 83L192 84L191 83M21.3333 84.6667L21.6667 85.3333L21.3333 84.6667M64 84L65 85L64 84M100 84L101 85L100 84M112 84L112 85L122 85L112 84z"/>
<path style="fill:#ea9f84; stroke:none;" d="M191 84L192 85L191 84z"/>
<path style="fill:#f6bcc6; stroke:none;" d="M6.33333 85.6667L6.66667 86.3333L6.33333 85.6667M71 85L72 86L71 85M104 85L105 86L104 85M122 85L123 86L122 85z"/>
<path style="fill:#f66f7f; stroke:none;" d="M177 85L178 86L177 85M191 85L192 86L191 85z"/>
<path style="fill:#f6bcc6; stroke:none;" d="M177.333 86.6667L177.667 87.3333L177.333 86.6667z"/>
<path style="fill:#ea9f84; stroke:none;" d="M6 87L7 88L6 87z"/>
<path style="fill:#f66f7f; stroke:none;" d="M20 87L21 88L20 87z"/>
<path style="fill:#f6bcc6; stroke:none;" d="M63 87L64 88L63 87z"/>
<path style="fill:#f66f7f; stroke:none;" d="M6 88L7 89L6 88z"/>
<path style="fill:#ea9f84; stroke:none;" d="M20 88L21 89L20 88z"/>
<path style="fill:#f6bcc6; stroke:none;" d="M110 88L110 92L111 92L110 88M125 88L126 89L125 88M129.333 88.6667L129.667 89.3333L129.333 88.6667M192 88L192 91L193 91L192 88M20.3333 89.6667L20.6667 90.3333L20.3333 89.6667M62.3333 89.6667L62.6667 90.3333L62.3333 89.6667M66 89L65 92L66 92L66 89M72.3333 89.6667L72.6667 90.3333L72.3333 89.6667z"/>
<path style="fill:#ffffff; stroke:none;" d="M66 90C63.9572 96.2803 60.8762 102.661 70 102L66 90z"/>
<path style="fill:#f6bcc6; stroke:none;" d="M126 90L127 91L126 90z"/>
<path style="fill:#f66f7f; stroke:none;" d="M178 90L179 91L178 90z"/>
<path style="fill:#f6bcc6; stroke:none;" d="M5 91L5 95L6 95L5 91M67 91L68 92L67 91M120 91L121 92L120 91M128 91L129 92L128 91z"/>
<path style="fill:#ea9f84; stroke:none;" d="M178 91L179 92L178 91z"/>
<path style="fill:#f66f7f; stroke:none;" d="M192.333 91.6667L192.667 92.3333L192.333 91.6667z"/>
<path style="fill:#f6bcc6; stroke:none;" d="M122 92L122 97L123 97L122 92M178 92L178 95L179 95L178 92z"/>
<path style="fill:#f66f7f; stroke:none;" d="M19.3333 93.6667L19.6667 94.3333L19.3333 93.6667z"/>
<path style="fill:#f6bcc6; stroke:none;" d="M61 93L62 94L61 93M73.3333 93.6667L73.6667 94.3333L73.3333 93.6667M64 94L65 95L64 94M68 94L69 95L68 94z"/>
<path style="fill:#f66f7f; stroke:none;" d="M5 95L5 99L6 99L5 95z"/>
<path style="fill:#f6bcc6; stroke:none;" d="M19 95L19 112L20 112L19 95M60 96L61 97L60 96M104.333 96.6667L104.667 97.3333L104.333 96.6667M110.333 96.6667L110.667 97.3333L110.333 96.6667M193 96L193 111L194 111L193 96M63 97L64 98L63 97M69.3333 97.6667L69.6667 98.3333L69.3333 97.6667M74 97L75 98L74 97M118 97L119 98L118 97M111.667 98.3333L112.333 98.6667L111.667 98.3333z"/>
<path style="fill:#f66f7f; stroke:none;" d="M179 98L179 109L180 109L179 98z"/>
<path style="fill:#f6bcc6; stroke:none;" d="M59 99L60 100L59 99M75.3333 99.6667L75.6667 100.333L75.3333 99.6667M70.3333 100.667L70.6667 101.333L70.3333 100.667M111.667 101.333L112.333 101.667L111.667 101.333M58.3333 102.667L58.6667 103.333L58.3333 102.667M64 102L65 103L64 102M66 102L66 103L70 103L66 102M117 102L118 103L117 102M122 102L122 105L123 105L122 102M76.3333 103.667L76.6667 104.333L76.3333 103.667M118.333 104.667L118.667 105.333L118.333 104.667M61 105L61 106L64 106L61 105M60.3333 106.667L60.6667 107.333L60.3333 106.667M72.3333 106.667L72.6667 107.333L72.3333 106.667M77 106L78 107L77 106M57.3333 107.667L57.6667 108.333L57.3333 107.667M119 107L120 108L119 107M121 107L122 108L121 107z"/>
<path style="fill:#f66f7f; stroke:none;" d="M5 108L5 112L6 112L5 108z"/>
<path style="fill:#f6bcc6; stroke:none;" d="M56.3333 109.667L56.6667 110.333L56.3333 109.667M59.3333 110.667L59.6667 111.333L59.3333 110.667M73.3333 110.667L73.6667 111.333L73.3333 110.667M176 110L176 111L179 111L176 110M104.333 111.667L104.667 112.333L104.333 111.667M172 111L173 112L172 111z"/>
<path style="fill:#ea9f84; stroke:none;" d="M173 111L175 113L173 111z"/>
<path style="fill:#f66f7f; stroke:none;" d="M174 111L175 112L174 111z"/>
<path style="fill:#f64c5f; stroke:none;" d="M175 111L176 112L175 111z"/>
<path style="fill:#ea9f84; stroke:none;" d="M176 111L177 112L176 111z"/>
<path style="fill:#f6bcc6; stroke:none;" d="M5 112L5 116L6 116L5 112z"/>
<path style="fill:#f66f7f; stroke:none;" d="M19.3333 112.667L19.6667 113.333L19.3333 112.667z"/>
<path style="fill:#f6bcc6; stroke:none;" d="M55 112L55 115L56 115L55 112M168 112L169 113L168 112z"/>
<path style="fill:#ea9f84; stroke:none;" d="M169 112L170 113L169 112z"/>
<path style="fill:#f66f7f; stroke:none;" d="M170 112L171 113L170 112z"/>
<path style="fill:#f64c5f; stroke:none;" d="M33 124L32 124C32.1724 144.557 52.9981 145.74 69 145.039C106.364 143.403 140.153 127.092 174 113C165.662 110.468 150.301 117.618 142 120C118.204 126.829 93.647 134.856 69 137.845C56.0804 139.412 34.8462 141.908 33 124z"/>
<path style="fill:#f6bcc6; stroke:none;" d="M178 112L178 115L179 115L178 112M79 113L80 114L79 113M164 113L165 114L164 113z"/>
<path style="fill:#ea9f84; stroke:none;" d="M165 113L166 114L165 113z"/>
<path style="fill:#f66f7f; stroke:none;" d="M166 113L167 114L166 113M172 113L173 114L172 113z"/>
<path style="fill:#f6bcc6; stroke:none;" d="M104.333 114.667L104.667 115.333L104.333 114.667z"/>
<path style="fill:#ea9f84; stroke:none;" d="M161 114L162 115L161 114z"/>
<path style="fill:#f66f7f; stroke:none;" d="M162 114L163 115L162 114M170 114L171 115L170 114M192.333 114.667L192.667 115.333L192.333 114.667z"/>
<path style="fill:#f6bcc6; stroke:none;" d="M59 115L60 116L59 115M110 115L111 116L110 115M157 115L158 116L157 115z"/>
<path style="fill:#f66f7f; stroke:none;" d="M158 115L159 116L158 115z"/>
<path style="fill:#ea9f84; stroke:none;" d="M168 115L169 116L168 115M178 115L179 116L178 115z"/>
<path style="fill:#f6bcc6; stroke:none;" d="M20.3333 116.667L20.6667 117.333L20.3333 116.667M51 116L52 117L51 116M62 116L63 117L62 116M72 116L73 117L72 116M82 116L82 117L85 117L82 116M115 116L116 117L115 116M153 116L154 117L153 116z"/>
<path style="fill:#ea9f84; stroke:none;" d="M154 116L155 117L154 116M166 116L167 117L166 116z"/>
<path style="fill:#f66f7f; stroke:none;" d="M178 116L179 117L178 116z"/>
<path style="fill:#ea9f84; stroke:none;" d="M192 116L193 117L192 116z"/>
<path style="fill:#f6bcc6; stroke:none;" d="M70 117L71 118L70 117M85 117L86 118L85 117M99 117L100 118L99 117M116.333 117.667L116.667 118.333L116.333 117.667M149 117L150 118L149 117z"/>
<path style="fill:#ea9f84; stroke:none;" d="M150 117L151 118L150 117z"/>
<path style="fill:#f66f7f; stroke:none;" d="M151 117L152 118L151 117z"/>
<path style="fill:#ea9f84; stroke:none;" d="M164 117L165 118L164 117z"/>
<path style="fill:#f6bcc6; stroke:none;" d="M192.333 117.667L192.667 118.333L192.333 117.667z"/>
<path style="fill:#f66f7f; stroke:none;" d="M6 118L7 119L6 118z"/>
<path style="fill:#ea9f84; stroke:none;" d="M20 118L21 119L20 118z"/>
<path style="fill:#f6bcc6; stroke:none;" d="M50 118L51 119L50 118M146 118L147 119L146 118z"/>
<path style="fill:#f66f7f; stroke:none;" d="M147 118L148 119L147 118z"/>
<path style="fill:#f6bcc6; stroke:none;" d="M162 118L163 119L162 118z"/>
<path style="fill:#ea9f84; stroke:none;" d="M6 119L7 120L6 119z"/>
<path style="fill:#f66f7f; stroke:none;" d="M20 119L21 120L20 119z"/>
<path style="fill:#f6bcc6; stroke:none;" d="M51 119L51 120L64 120L51 119M71.6667 119.333L72.3333 119.667L71.6667 119.333M76 119L76 120L83 120L76 119M84 119L85 120L84 119M105 119L105 120L111 120L105 119M114.667 119.333L115.333 119.667L114.667 119.333M142 119L143 120L142 119z"/>
<path style="fill:#ea9f84; stroke:none;" d="M143 119L144 120L143 119z"/>
<path style="fill:#f6bcc6; stroke:none;" d="M160 119L161 120L160 119M177.333 119.667L177.667 120.333L177.333 119.667M6.33333 120.667L6.66667 121.333L6.33333 120.667M139 120L140 121L139 120z"/>
<path style="fill:#f66f7f; stroke:none;" d="M140 120L141 121L140 120M157 120L158 121L157 120z"/>
<path style="fill:#f6bcc6; stroke:none;" d="M158 120L159 121L158 120M21.3333 121.667L21.6667 122.333L21.3333 121.667M135 121L136 122L135 121z"/>
<path style="fill:#ea9f84; stroke:none;" d="M136 121L137 122L136 121M155 121L156 122L155 121z"/>
<path style="fill:#f66f7f; stroke:none;" d="M177 121L178 122L177 121M191 121L192 122L191 121z"/>
<path style="fill:#f6bcc6; stroke:none;" d="M32 122L33 123L32 122M131 122L132 123L131 122z"/>
<path style="fill:#ea9f84; stroke:none;" d="M132 122L133 123L132 122z"/>
<path style="fill:#f66f7f; stroke:none;" d="M133 122L134 123L133 122z"/>
<path style="fill:#f6bcc6; stroke:none;" d="M153 122L154 123L153 122z"/>
<path style="fill:#ea9f84; stroke:none;" d="M191 122L192 123L191 122z"/>
<path style="fill:#f66f7f; stroke:none;" d="M7 123L8 124L7 123M21 123L22 124L21 123M32 123L33 124L32 123z"/>
<path style="fill:#f6bcc6; stroke:none;" d="M128 123L129 124L128 123z"/>
<path style="fill:#f66f7f; stroke:none;" d="M129 123L130 124L129 123M150 123L151 124L150 123z"/>
<path style="fill:#f6bcc6; stroke:none;" d="M151 123L152 124L151 123M191 123L192 124L191 123z"/>
<path style="fill:#ea9f84; stroke:none;" d="M7 124L8 125L7 124z"/>
<path style="fill:#f6bcc6; stroke:none;" d="M124 124L125 125L124 124z"/>
<path style="fill:#ea9f84; stroke:none;" d="M125 124L126 125L125 124M148 124L149 125L148 124z"/>
<path style="fill:#f6bcc6; stroke:none;" d="M176 124L177 125L176 124M7 125L8 126L7 125M22 125L23 126L22 125z"/>
<path style="fill:#ea9f84; stroke:none;" d="M121 125L122 126L121 125z"/>
<path style="fill:#f66f7f; stroke:none;" d="M122 125L123 126L122 125M145 125L146 126L145 125z"/>
<path style="fill:#f6bcc6; stroke:none;" d="M146 125L147 126L146 125z"/>
<path style="fill:#f66f7f; stroke:none;" d="M176 125L177 126L176 125M190.333 125.667L190.667 126.333L190.333 125.667z"/>
<path style="fill:#ea9f84; stroke:none;" d="M22 126L23 127L22 126z"/>
<path style="fill:#f6bcc6; stroke:none;" d="M33 126L34 127L33 126M117 126L118 127L117 126z"/>
<path style="fill:#f66f7f; stroke:none;" d="M118 126L119 127L118 126z"/>
<path style="fill:#ea9f84; stroke:none;" d="M143 126L144 127L143 126z"/>
<path style="fill:#f66f7f; stroke:none;" d="M22 127L23 128L22 127z"/>
<path style="fill:#ea9f84; stroke:none;" d="M33 127L34 128L33 127z"/>
<path style="fill:#f6bcc6; stroke:none;" d="M113 127L114 128L113 127z"/>
<path style="fill:#ea9f84; stroke:none;" d="M114 127L115 128L114 127z"/>
<path style="fill:#f66f7f; stroke:none;" d="M140 127L141 128L140 127z"/>
<path style="fill:#f6bcc6; stroke:none;" d="M141 127L142 128L141 127M175 127L176 128L175 127M190 127L191 128L190 127z"/>
<path style="fill:#ea9f84; stroke:none;" d="M8 128L9 129L8 128z"/>
<path style="fill:#f66f7f; stroke:none;" d="M33 128L34 129L33 128z"/>
<path style="fill:#f6bcc6; stroke:none;" d="M109 128L110 129L109 128z"/>
<path style="fill:#ea9f84; stroke:none;" d="M110 128L111 129L110 128z"/>
<path style="fill:#f66f7f; stroke:none;" d="M111 128L112 129L111 128z"/>
<path style="fill:#f6bcc6; stroke:none;" d="M138 128L139 129L138 128z"/>
<path style="fill:#ea9f84; stroke:none;" d="M175 128L176 129L175 128z"/>
<path style="fill:#f6bcc6; stroke:none;" d="M8 129L9 130L8 129M23 129L24 130L23 129M105 129L106 130L105 129z"/>
<path style="fill:#ea9f84; stroke:none;" d="M106 129L107 130L106 129z"/>
<path style="fill:#f66f7f; stroke:none;" d="M107 129L108 130L107 129z"/>
<path style="fill:#ea9f84; stroke:none;" d="M135 129L136 130L135 129z"/>
<path style="fill:#f66f7f; stroke:none;" d="M189 129L190 130L189 129M23 130L24 131L23 130z"/>
<path style="fill:#ea9f84; stroke:none;" d="M34 130L35 131L34 130z"/>
<path style="fill:#f6bcc6; stroke:none;" d="M102 130L103 131L102 130z"/>
<path style="fill:#f66f7f; stroke:none;" d="M103 130L104 131L103 130M132 130L133 131L132 130z"/>
<path style="fill:#f6bcc6; stroke:none;" d="M133 130L134 131L133 130M174 130L175 131L174 130z"/>
<path style="fill:#ea9f84; stroke:none;" d="M189 130L190 131L189 130z"/>
<path style="fill:#f66f7f; stroke:none;" d="M9 131L10 132L9 131z"/>
<path style="fill:#ea9f84; stroke:none;" d="M32 131L33 132L32 131z"/>
<path style="fill:#f6bcc6; stroke:none;" d="M98 131L99 132L98 131z"/>
<path style="fill:#f66f7f; stroke:none;" d="M99 131L100 132L99 131M129 131L130 132L129 131z"/>
<path style="fill:#f6bcc6; stroke:none;" d="M130 131L131 132L130 131z"/>
<path style="fill:#f66f7f; stroke:none;" d="M174 131L175 132L174 131z"/>
<path style="fill:#f6bcc6; stroke:none;" d="M189 131L190 132L189 131M9 132L10 133L9 132z"/>
<path style="fill:#ea9f84; stroke:none;" d="M24 132L25 133L24 132z"/>
<path style="fill:#f6bcc6; stroke:none;" d="M32 132L33 133L32 132z"/>
<path style="fill:#f66f7f; stroke:none;" d="M35 132L36 133L35 132z"/>
<path style="fill:#f6bcc6; stroke:none;" d="M93.6667 132.333L94.3333 132.667L93.6667 132.333z"/>
<path style="fill:#f66f7f; stroke:none;" d="M95 132L96 133L95 132M126 132L127 133L126 132z"/>
<path style="fill:#f6bcc6; stroke:none;" d="M127 132L128 133L127 132z"/>
<path style="fill:#f66f7f; stroke:none;" d="M36 133L37 134L36 133z"/>
<path style="fill:#f6bcc6; stroke:none;" d="M89 133L90 134L89 133z"/>
<path style="fill:#ea9f84; stroke:none;" d="M90 133L91 134L90 133z"/>
<path style="fill:#f66f7f; stroke:none;" d="M91 133L92 134L91 133M123 133L124 134L123 133z"/>
<path style="fill:#f6bcc6; stroke:none;" d="M124 133L125 134L124 133M173 133L174 134L173 133z"/>
<path style="fill:#ea9f84; stroke:none;" d="M188 133L189 134L188 133z"/>
<path style="fill:#f66f7f; stroke:none;" d="M10 134L11 135L10 134z"/>
<path style="fill:#f6bcc6; stroke:none;" d="M25 134L26 135L25 134M33 134L34 135L33 134z"/>
<path style="fill:#f66f7f; stroke:none;" d="M37 134L38 135L37 134z"/>
<path style="fill:#f6bcc6; stroke:none;" d="M85 134L86 135L85 134z"/>
<path style="fill:#ea9f84; stroke:none;" d="M86 134L87 135L86 134z"/>
<path style="fill:#f66f7f; stroke:none;" d="M120 134L121 135L120 134z"/>
<path style="fill:#f6bcc6; stroke:none;" d="M121 134L122 135L121 134z"/>
<path style="fill:#f66f7f; stroke:none;" d="M173 134L174 135L173 134z"/>
<path style="fill:#f6bcc6; stroke:none;" d="M188 134L189 135L188 134M10 135L11 136L10 135z"/>
<path style="fill:#f66f7f; stroke:none;" d="M25 135L26 136L25 135M34 135L35 136L34 135z"/>
<path style="fill:#f6bcc6; stroke:none;" d="M39 135L40 136L39 135M80 135L81 136L80 135z"/>
<path style="fill:#ea9f84; stroke:none;" d="M81 135L82 136L81 135z"/>
<path style="fill:#f66f7f; stroke:none;" d="M82 135L83 136L82 135M117 135L118 136L117 135z"/>
<path style="fill:#f6bcc6; stroke:none;" d="M118 135L119 136L118 135M172 135L173 136L172 135M26 136L27 137L26 136z"/>
<path style="fill:#f66f7f; stroke:none;" d="M40 136L41 137L40 136z"/>
<path style="fill:#f6bcc6; stroke:none;" d="M74 136L75 137L74 136z"/>
<path style="fill:#ea9f84; stroke:none;" d="M75.6667 136.333L76.3333 136.667L75.6667 136.333z"/>
<path style="fill:#f66f7f; stroke:none;" d="M77 136L78 137L77 136z"/>
<path style="fill:#ea9f84; stroke:none;" d="M114 136L115 137L114 136z"/>
<path style="fill:#f6bcc6; stroke:none;" d="M115 136L116 137L115 136z"/>
<path style="fill:#f66f7f; stroke:none;" d="M172 136L173 137L172 136z"/>
<path style="fill:#ea9f84; stroke:none;" d="M187 136L188 137L187 136z"/>
<path style="fill:#f66f7f; stroke:none;" d="M11 137L12 138L11 137M26 137L27 138L26 137z"/>
<path style="fill:#f6bcc6; stroke:none;" d="M35 137L36 138L35 137z"/>
<path style="fill:#ea9f84; stroke:none;" d="M43 137L44 138L43 137z"/>
<path style="fill:#f6bcc6; stroke:none;" d="M44 137L45 138L44 137M67.6667 137.333L68.3333 137.667L67.6667 137.333z"/>
<path style="fill:#ea9f84; stroke:none;" d="M69.6667 137.333L70.3333 137.667L69.6667 137.333z"/>
<path style="fill:#f66f7f; stroke:none;" d="M71 137L72 138L71 137M110 137L111 138L110 137z"/>
<path style="fill:#f6bcc6; stroke:none;" d="M111 137L112 138L111 137M171 137L172 138L171 137M11 138L12 139L11 138M36 138L37 139L36 138z"/>
<path style="fill:#f66f7f; stroke:none;" d="M46 138L47 139L46 138z"/>
<path style="fill:#ea9f84; stroke:none;" d="M47.6667 138.333L48.3333 138.667L47.6667 138.333z"/>
<path style="fill:#f6bcc6; stroke:none;" d="M49 138L49 139L60 139L49 138z"/>
<path style="fill:#ea9f84; stroke:none;" d="M60 138L60 139L63 139L60 138z"/>
<path style="fill:#f66f7f; stroke:none;" d="M63 138L64 139L63 138z"/>
<path style="fill:#ea9f84; stroke:none;" d="M107 138L108 139L107 138z"/>
<path style="fill:#f6bcc6; stroke:none;" d="M108 138L109 139L108 138z"/>
<path style="fill:#f66f7f; stroke:none;" d="M171 138L172 139L171 138M186 138L187 139L186 138M12 139L13 140L12 139M27 139L28 140L27 139z"/>
<path style="fill:#f6bcc6; stroke:none;" d="M37 139L38 140L37 139z"/>
<path style="fill:#ea9f84; stroke:none;" d="M103 139L104 140L103 139z"/>
<path style="fill:#f6bcc6; stroke:none;" d="M104 139L105 140L104 139M170 139L171 140L170 139M186 139L187 140L186 139M12 140L13 141L12 140M28 140L29 141L28 140z"/>
<path style="fill:#ea9f84; stroke:none;" d="M39 140L40 141L39 140M99 140L100 141L99 140z"/>
<path style="fill:#f6bcc6; stroke:none;" d="M100 140L101 141L100 140z"/>
<path style="fill:#f66f7f; stroke:none;" d="M170 140L171 141L170 140M28 141L29 142L28 141M41 141L42 142L41 141z"/>
<path style="fill:#ea9f84; stroke:none;" d="M95 141L96 142L95 141z"/>
<path style="fill:#f6bcc6; stroke:none;" d="M96 141L97 142L96 141M169 141L170 142L169 141M185 141L186 142L185 141z"/>
<path style="fill:#ea9f84; stroke:none;" d="M13 142L14 143L13 142z"/>
<path style="fill:#f6bcc6; stroke:none;" d="M29 142L30 143L29 142M42 142L43 143L42 142z"/>
<path style="fill:#f66f7f; stroke:none;" d="M43 142L44 143L43 142z"/>
<path style="fill:#ea9f84; stroke:none;" d="M90 142L91 143L90 142z"/>
<path style="fill:#f6bcc6; stroke:none;" d="M91 142L92 143L91 142z"/>
<path style="fill:#f66f7f; stroke:none;" d="M169 142L170 143L169 142M29 143L30 144L29 143z"/>
<path style="fill:#f6bcc6; stroke:none;" d="M45 143L46 144L45 143z"/>
<path style="fill:#f66f7f; stroke:none;" d="M46 143L47 144L46 143M84 143L85 144L84 143z"/>
<path style="fill:#ea9f84; stroke:none;" d="M85 143L86 144L85 143z"/>
<path style="fill:#f6bcc6; stroke:none;" d="M86 143L87 144L86 143M168 143L169 144L168 143z"/>
<path style="fill:#ea9f84; stroke:none;" d="M184 143L185 144L184 143M14 144L15 145L14 144z"/>
<path style="fill:#f6bcc6; stroke:none;" d="M30 144L31 145L30 144M48.6667 144.333L49.3333 144.667L48.6667 144.333z"/>
<path style="fill:#ea9f84; stroke:none;" d="M50 144L51 145L50 144z"/>
<path style="fill:#f66f7f; stroke:none;" d="M77 144L78 145L77 144z"/>
<path style="fill:#ea9f84; stroke:none;" d="M78 144L79 145L78 144z"/>
<path style="fill:#f6bcc6; stroke:none;" d="M79.6667 144.333L80.3333 144.667L79.6667 144.333z"/>
<path style="fill:#f66f7f; stroke:none;" d="M168 144L169 145L168 144z"/>
<path style="fill:#f6bcc6; stroke:none;" d="M54 145L54 146L57 146L54 145z"/>
<path style="fill:#ea9f84; stroke:none;" d="M57 145L57 146L61 146L57 145M64 145L64 146L70 146L64 145z"/>
<path style="fill:#f6bcc6; stroke:none;" d="M70 145L70 146L73 146L70 145z"/>
<path style="fill:#ea9f84; stroke:none;" d="M167 145L168 146L167 145M183 145L184 146L183 145M15 146L16 147L15 146M31 146L32 147L31 146z"/>
<path style="fill:#f6bcc6; stroke:none;" d="M32 147L33 148L32 147z"/>
<path style="fill:#f66f7f; stroke:none;" d="M166 147L167 148L166 147z"/>
<path style="fill:#ea9f84; stroke:none;" d="M182 147L183 148L182 147M16 148L17 149L16 148z"/>
<path style="fill:#f6bcc6; stroke:none;" d="M165 148L166 149L165 148z"/>
<path style="fill:#ea9f84; stroke:none;" d="M33 149L34 150L33 149z"/>
<path style="fill:#f6bcc6; stroke:none;" d="M181 149L182 150L181 149M17 150L18 151L17 150M34 150L35 151L34 150z"/>
<path style="fill:#f66f7f; stroke:none;" d="M164 150L165 151L164 150M18 151L19 152L18 151z"/>
<path style="fill:#ea9f84; stroke:none;" d="M163 151L164 152L163 151z"/>
<path style="fill:#f6bcc6; stroke:none;" d="M180 151L181 152L180 151M18 152L19 153L18 152z"/>
<path style="fill:#f66f7f; stroke:none;" d="M35 152L36 153L35 152z"/>
<path style="fill:#f6bcc6; stroke:none;" d="M162 152L163 153L162 152z"/>
<path style="fill:#f66f7f; stroke:none;" d="M179 152L180 153L179 152M19 153L20 154L19 153z"/>
<path style="fill:#ea9f84; stroke:none;" d="M36 153L37 154L36 153z"/>
<path style="fill:#f6bcc6; stroke:none;" d="M37 154L38 155L37 154M178 154L179 155L178 154M20 155L21 156L20 155M38 155L39 156L38 155z"/>
<path style="fill:#f66f7f; stroke:none;" d="M160 155L161 156L160 155M177 155L178 156L177 155M21 156L22 157L21 156z"/>
<path style="fill:#ea9f84; stroke:none;" d="M159 156L160 157L159 156z"/>
<path style="fill:#f6bcc6; stroke:none;" d="M177 156L178 157L177 156z"/>
<path style="fill:#ea9f84; stroke:none;" d="M158 157L159 158L158 157z"/>
<path style="fill:#f6bcc6; stroke:none;" d="M176 157L177 158L176 157M22 158L23 159L22 158z"/>
<path style="fill:#ea9f84; stroke:none;" d="M157 158L158 159L157 158z"/>
<path style="fill:#f66f7f; stroke:none;" d="M175 158L176 159L175 158z"/>
<path style="fill:#ea9f84; stroke:none;" d="M23 159L24 160L23 159z"/>
<path style="fill:#f66f7f; stroke:none;" d="M41 159L42 160L41 159z"/>
<path style="fill:#f6bcc6; stroke:none;" d="M156 159L157 160L156 159z"/>
<path style="fill:#f66f7f; stroke:none;" d="M24 160L25 161L24 160M42 160L43 161L42 160z"/>
<path style="fill:#f6bcc6; stroke:none;" d="M155 160L156 161L155 160M174 160L175 161L174 160z"/>
<path style="fill:#f66f7f; stroke:none;" d="M43 161L44 162L43 161z"/>
<path style="fill:#ea9f84; stroke:none;" d="M154 161L155 162L154 161M173 161L174 162L173 161z"/>
<path style="fill:#f6bcc6; stroke:none;" d="M25 162L26 163L25 162z"/>
<path style="fill:#ea9f84; stroke:none;" d="M153 162L154 163L153 162z"/>
<path style="fill:#f66f7f; stroke:none;" d="M172 162L173 163L172 162z"/>
<path style="fill:#f6bcc6; stroke:none;" d="M26 163L27 164L26 163z"/>
<path style="fill:#ea9f84; stroke:none;" d="M152 163L153 164L152 163M27 164L28 165L27 164z"/>
<path style="fill:#f6bcc6; stroke:none;" d="M47 164L48 165L47 164z"/>
<path style="fill:#f66f7f; stroke:none;" d="M151 164L152 165L151 164M28 165L29 166L28 165z"/>
<path style="fill:#f6bcc6; stroke:none;" d="M48 165L49 166L48 165z"/>
<path style="fill:#f66f7f; stroke:none;" d="M150 165L151 166L150 165z"/>
<path style="fill:#f6bcc6; stroke:none;" d="M170 165L171 166L170 165z"/>
<path style="fill:#f66f7f; stroke:none;" d="M29 166L30 167L29 166z"/>
<path style="fill:#ea9f84; stroke:none;" d="M49 166L50 167L49 166z"/>
<path style="fill:#f6bcc6; stroke:none;" d="M148 166L149 167L148 166M169 166L170 167L169 166z"/>
<path style="fill:#f66f7f; stroke:none;" d="M30 167L31 168L30 167M50 167L51 168L50 167z"/>
<path style="fill:#ea9f84; stroke:none;" d="M147 167L148 168L147 167z"/>
<path style="fill:#f6bcc6; stroke:none;" d="M168 167L169 168L168 167M52 168L53 169L52 168z"/>
<path style="fill:#f66f7f; stroke:none;" d="M146 168L147 169L146 168z"/>
<path style="fill:#ea9f84; stroke:none;" d="M167 168L168 169L167 168z"/>
<path style="fill:#f66f7f; stroke:none;" d="M53 169L54 170L53 169z"/>
<path style="fill:#f6bcc6; stroke:none;" d="M144 169L145 170L144 169z"/>
<path style="fill:#ea9f84; stroke:none;" d="M166 169L167 170L166 169z"/>
<path style="fill:#f6bcc6; stroke:none;" d="M55 170L56 171L55 170z"/>
<path style="fill:#f66f7f; stroke:none;" d="M143 170L144 171L143 170z"/>
<path style="fill:#ea9f84; stroke:none;" d="M165 170L166 171L165 170z"/>
<path style="fill:#f66f7f; stroke:none;" d="M56 171L57 172L56 171z"/>
<path style="fill:#f6bcc6; stroke:none;" d="M141 171L142 172L141 171z"/>
<path style="fill:#ea9f84; stroke:none;" d="M164 171L165 172L164 171z"/>
<path style="fill:#f66f7f; stroke:none;" d="M35 172L36 173L35 172z"/>
<path style="fill:#f6bcc6; stroke:none;" d="M58 172L59 173L58 172M139 172L140 173L139 172z"/>
<path style="fill:#f66f7f; stroke:none;" d="M140 172L141 173L140 172z"/>
<path style="fill:#f6bcc6; stroke:none;" d="M163 172L164 173L163 172z"/>
<path style="fill:#f66f7f; stroke:none;" d="M36 173L37 174L36 173M59 173L60 174L59 173z"/>
<path style="fill:#f6bcc6; stroke:none;" d="M60 173L61 174L60 173z"/>
<path style="fill:#ea9f84; stroke:none;" d="M138 173L139 174L138 173z"/>
<path style="fill:#f6bcc6; stroke:none;" d="M162 173L163 174L162 173z"/>
<path style="fill:#f66f7f; stroke:none;" d="M37 174L38 175L37 174M61 174L62 175L61 174z"/>
<path style="fill:#f6bcc6; stroke:none;" d="M62 174L63 175L62 174z"/>
<path style="fill:#ea9f84; stroke:none;" d="M136 174L137 175L136 174z"/>
<path style="fill:#f6bcc6; stroke:none;" d="M161 174L162 175L161 174z"/>
<path style="fill:#ea9f84; stroke:none;" d="M38 175L39 176L38 175z"/>
<path style="fill:#f66f7f; stroke:none;" d="M63 175L64 176L63 175z"/>
<path style="fill:#f6bcc6; stroke:none;" d="M64 175L65 176L64 175M134 175L135 176L134 175M39 176L40 177L39 176z"/>
<path style="fill:#f66f7f; stroke:none;" d="M65 176L66 177L65 176z"/>
<path style="fill:#f6bcc6; stroke:none;" d="M66 176L67 177L66 176z"/>
<path style="fill:#ea9f84; stroke:none;" d="M132 176L133 177L132 176z"/>
<path style="fill:#f66f7f; stroke:none;" d="M158 176L159 177L158 176z"/>
<path style="fill:#f6bcc6; stroke:none;" d="M40 177L41 178L40 177z"/>
<path style="fill:#f66f7f; stroke:none;" d="M67 177L68 178L67 177z"/>
<path style="fill:#f6bcc6; stroke:none;" d="M68 177L69 178L68 177M129 177L130 178L129 177z"/>
<path style="fill:#ea9f84; stroke:none;" d="M130 177L131 178L130 177M157 177L158 178L157 177z"/>
<path style="fill:#f66f7f; stroke:none;" d="M42 178L43 179L42 178z"/>
<path style="fill:#ea9f84; stroke:none;" d="M70 178L71 179L70 178z"/>
<path style="fill:#f6bcc6; stroke:none;" d="M71 178L72 179L71 178M127 178L128 179L127 178z"/>
<path style="fill:#f66f7f; stroke:none;" d="M128 178L129 179L128 178z"/>
<path style="fill:#f6bcc6; stroke:none;" d="M156 178L157 179L156 178z"/>
<path style="fill:#ea9f84; stroke:none;" d="M43 179L44 180L43 179M73 179L74 180L73 179z"/>
<path style="fill:#f6bcc6; stroke:none;" d="M74 179L75 180L74 179M124 179L125 180L124 179z"/>
<path style="fill:#f66f7f; stroke:none;" d="M125 179L126 180L125 179M154 179L155 180L154 179z"/>
<path style="fill:#f6bcc6; stroke:none;" d="M44 180L45 181L44 180z"/>
<path style="fill:#ea9f84; stroke:none;" d="M76 180L77 181L76 180z"/>
<path style="fill:#f6bcc6; stroke:none;" d="M77 180L78 181L77 180M120 180L121 181L120 180z"/>
<path style="fill:#ea9f84; stroke:none;" d="M121 180L122 181L121 180z"/>
<path style="fill:#f66f7f; stroke:none;" d="M122 180L123 181L122 180z"/>
<path style="fill:#ea9f84; stroke:none;" d="M153 180L154 181L153 180z"/>
<path style="fill:#f66f7f; stroke:none;" d="M46 181L47 182L46 181M79 181L80 182L79 181z"/>
<path style="fill:#ea9f84; stroke:none;" d="M80 181L81 182L80 181z"/>
<path style="fill:#f6bcc6; stroke:none;" d="M81 181L82 182L81 181M116.667 181.333L117.333 181.667L116.667 181.333z"/>
<path style="fill:#f66f7f; stroke:none;" d="M118 181L119 182L118 181z"/>
<path style="fill:#f6bcc6; stroke:none;" d="M152 181L153 182L152 181M47 182L48 183L47 182z"/>
<path style="fill:#f66f7f; stroke:none;" d="M84 182L85 183L84 182z"/>
<path style="fill:#ea9f84; stroke:none;" d="M85 182L86 183L85 182z"/>
<path style="fill:#f6bcc6; stroke:none;" d="M86.6667 182.333L87.3333 182.667L86.6667 182.333M111.667 182.333L112.333 182.667L111.667 182.333z"/>
<path style="fill:#ea9f84; stroke:none;" d="M113 182L114 183L113 182z"/>
<path style="fill:#f66f7f; stroke:none;" d="M114 182L115 183L114 182M150 182L151 183L150 182z"/>
<path style="fill:#ea9f84; stroke:none;" d="M49 183L50 184L49 183z"/>
<path style="fill:#f66f7f; stroke:none;" d="M90 183L90 184L93 184L90 183z"/>
<path style="fill:#f6bcc6; stroke:none;" d="M93 183L93 184L105 184L93 183z"/>
<path style="fill:#ea9f84; stroke:none;" d="M105 183L106 184L105 183z"/>
<path style="fill:#f66f7f; stroke:none;" d="M106.667 183.333L107.333 183.667L106.667 183.333M148 183L149 184L148 183z"/>
<path style="fill:#f6bcc6; stroke:none;" d="M149 183L150 184L149 183M50 184L51 185L50 184z"/>
<path style="fill:#f66f7f; stroke:none;" d="M51 184L52 185L51 184z"/>
<path style="fill:#f6bcc6; stroke:none;" d="M147 184L148 185L147 184M52 185L53 186L52 185z"/>
<path style="fill:#f66f7f; stroke:none;" d="M145 185L146 186L145 185z"/>
<path style="fill:#f6bcc6; stroke:none;" d="M54 186L55 187L54 186z"/>
<path style="fill:#f66f7f; stroke:none;" d="M143 186L144 187L143 186z"/>
<path style="fill:#f6bcc6; stroke:none;" d="M144 186L145 187L144 186M56 187L57 188L56 187z"/>
<path style="fill:#f66f7f; stroke:none;" d="M141 187L142 188L141 187z"/>
<path style="fill:#f6bcc6; stroke:none;" d="M142 187L143 188L142 187z"/>
<path style="fill:#ea9f84; stroke:none;" d="M58 188L59 189L58 188z"/>
<path style="fill:#f66f7f; stroke:none;" d="M139 188L140 189L139 188z"/>
<path style="fill:#f6bcc6; stroke:none;" d="M140 188L141 189L140 188M60 189L61 190L60 189z"/>
<path style="fill:#f66f7f; stroke:none;" d="M137 189L138 190L137 189z"/>
<path style="fill:#f6bcc6; stroke:none;" d="M138 189L139 190L138 189M62 190L63 191L62 190z"/>
<path style="fill:#f66f7f; stroke:none;" d="M63 190L64 191L63 190z"/>
<path style="fill:#ea9f84; stroke:none;" d="M135 190L136 191L135 190M65 191L66 192L65 191z"/>
<path style="fill:#f66f7f; stroke:none;" d="M132 191L133 192L132 191z"/>
<path style="fill:#f6bcc6; stroke:none;" d="M133 191L134 192L133 191M67 192L68 193L67 192z"/>
<path style="fill:#ea9f84; stroke:none;" d="M68 192L69 193L68 192z"/>
<path style="fill:#f66f7f; stroke:none;" d="M129 192L130 193L129 192z"/>
<path style="fill:#f6bcc6; stroke:none;" d="M130 192L131 193L130 192M70 193L71 194L70 193z"/>
<path style="fill:#f66f7f; stroke:none;" d="M71 193L72 194L71 193M126 193L127 194L126 193z"/>
<path style="fill:#f6bcc6; stroke:none;" d="M127 193L128 194L127 193M74 194L75 195L74 194z"/>
<path style="fill:#f66f7f; stroke:none;" d="M75 194L76 195L75 194z"/>
<path style="fill:#ea9f84; stroke:none;" d="M123 194L124 195L123 194z"/>
<path style="fill:#f6bcc6; stroke:none;" d="M124 194L125 195L124 194M77.6667 195.333L78.3333 195.667L77.6667 195.333z"/>
<path style="fill:#f66f7f; stroke:none;" d="M79 195L80 196L79 195M118 195L119 196L118 195z"/>
<path style="fill:#ea9f84; stroke:none;" d="M119 195L120 196L119 195z"/>
<path style="fill:#f6bcc6; stroke:none;" d="M120 195L121 196L120 195M82.6667 196.333L83.3333 196.667L82.6667 196.333z"/>
<path style="fill:#f66f7f; stroke:none;" d="M84.6667 196.333L85.3333 196.667L84.6667 196.333M112.667 196.333L113.333 196.667L112.667 196.333z"/>
<path style="fill:#ea9f84; stroke:none;" d="M114 196L115 197L114 196z"/>
<path style="fill:#f6bcc6; stroke:none;" d="M115.667 196.333L116.333 196.667L115.667 196.333M88 197L88 198L93 198L88 197z"/>
<path style="fill:#ea9f84; stroke:none;" d="M93 197L94 198L93 197z"/>
<path style="fill:#f66f7f; stroke:none;" d="M94 197L94 198L105 198L94 197z"/>
<path style="fill:#f6bcc6; stroke:none;" d="M105 197L105 198L110 198L105 197z"/>
</svg>
